#N canvas -292 141 1924 658 10;
#N canvas 0 50 1911 977 windowX 0;
#X obj 554 390 vd~ lol;
#X obj 389 465 delwrite~ lol 400;
#X obj 377 262 osc~ 15000;
#X obj 377 422 *~;
#X obj 444 389 line~;
#X msg 450 326 1 1;
#X msg 503 329 0 600;
#X obj 482 245 bng 15 250 50 0 empty empty empty 17 7 0 10 -262144
-1 -1;
#X obj 504 299 del 300;
#X obj 376 530 dac~;
#X obj 482 207 sel 1;
#X obj 481 184 change;
#X obj 555 364 sig~ 300;
#X obj 558 422 *~ 0.7;
#X obj 705 469 *~;
#X obj 772 436 line~;
#X msg 778 373 1 1;
#X msg 831 376 0 600;
#X obj 810 292 bng 15 250 50 0 empty empty empty 17 7 0 10 -262144
-1 -1;
#X obj 832 346 del 300;
#X obj 810 180 change;
#X obj 886 469 *~ 0.7;
#X obj 778 530 delwrite~ lol1 400;
#X obj 882 437 vd~ lol1;
#X obj 705 309 osc~ 13000;
#X obj 883 411 sig~ 399;
#X obj 1006 427 *~;
#X obj 1073 394 line~;
#X msg 1079 331 1 1;
#X msg 1132 334 0 600;
#X obj 1111 250 bng 15 250 50 0 empty empty empty 17 7 0 10 -262144
-1 -1;
#X obj 1133 304 del 300;
#X obj 1111 212 sel 1;
#X obj 1110 189 change;
#X obj 1049 534 delwrite~ lol2 400;
#X obj 1205 434 sig~ 399;
#X obj 1204 460 vd~ lol2;
#X obj 1208 492 *~ 0.9;
#X obj 1006 267 osc~ 16000;
#X obj 479 153 r windowX1;
#X obj 811 203 sel 1;
#X obj 812 145 r windowX2;
#X obj 1106 125 r windowX3;
#X obj 1306 436 *~;
#X obj 1373 403 line~;
#X msg 1379 340 1 1;
#X msg 1432 343 0 600;
#X obj 1411 259 bng 15 250 50 0 empty empty empty 17 7 0 10 -262144
-1 -1;
#X obj 1433 313 del 300;
#X obj 1411 221 sel 1;
#X obj 1410 198 change;
#X obj 1508 501 *~ 0.9;
#X obj 1406 134 r windowX4;
#X obj 1281 575 delwrite~ lol3 400;
#X obj 1504 469 vd~ lol3;
#X obj 1334 525 dac~;
#X obj 1306 276 osc~ 15500;
#X obj 1505 443 sig~ 100;
#X obj 1603 455 *~;
#X obj 1670 422 line~;
#X msg 1676 359 1 1;
#X msg 1729 362 0 600;
#X obj 1708 278 bng 15 250 50 0 empty empty empty 17 7 0 10 -262144
-1 -1;
#X obj 1730 332 del 300;
#X obj 1708 240 sel 1;
#X obj 1707 217 change;
#X obj 1805 520 *~ 0.9;
#X obj 1631 544 dac~;
#X obj 1802 462 sig~ 100;
#X obj 1882 473 *~;
#X obj 1949 440 line~;
#X msg 1955 377 1 1;
#X msg 2008 380 0 600;
#X obj 1987 296 bng 15 250 50 0 empty empty empty 17 7 0 10 -262144
-1 -1;
#X obj 2009 350 del 300;
#X obj 1987 258 sel 1;
#X obj 1986 235 change;
#X obj 2084 538 *~ 0.9;
#X obj 1910 562 dac~;
#X obj 2081 480 sig~ 100;
#X obj 1703 153 r windowX5;
#X obj 1982 171 r windowX6;
#X obj 1578 594 delwrite~ lol4 400;
#X obj 1801 488 vd~ lol4;
#X obj 1857 612 delwrite~ lol5 400;
#X obj 2080 506 vd~ lol5;
#X obj 1603 295 osc~ 13500;
#X obj 1882 313 osc~ 14500;
#X obj 702 532 dac~;
#X obj 998 516 dac~;
#X obj 363 864 *~;
#X obj 430 831 line~;
#X msg 436 768 1 1;
#X msg 489 771 0 600;
#X obj 468 687 bng 15 250 50 0 empty empty empty 17 7 0 10 -262144
-1 -1;
#X obj 490 741 del 300;
#X obj 395 999 dac~;
#X obj 468 649 sel 1;
#X obj 467 626 change;
#X obj 541 806 sig~ 300;
#X obj 538 862 *~ 0.7;
#X obj 691 911 *~;
#X obj 758 878 line~;
#X msg 764 815 1 1;
#X msg 817 818 0 600;
#X obj 796 734 bng 15 250 50 0 empty empty empty 17 7 0 10 -262144
-1 -1;
#X obj 818 788 del 300;
#X obj 796 622 change;
#X obj 813 921 *~ 0.7;
#X obj 992 869 *~;
#X obj 1059 836 line~;
#X msg 1065 773 1 1;
#X msg 1118 776 0 600;
#X obj 1097 692 bng 15 250 50 0 empty empty empty 17 7 0 10 -262144
-1 -1;
#X obj 1119 746 del 300;
#X obj 1097 654 sel 1;
#X obj 1096 631 change;
#X obj 1194 934 *~ 0.9;
#X obj 797 645 sel 1;
#X obj 688 974 dac~;
#X obj 984 958 dac~;
#X obj 465 595 r windowX7;
#X obj 798 587 r windowX8;
#X obj 1092 582 r windowX9;
#X obj 1312 898 *~;
#X obj 1379 865 line~;
#X msg 1385 802 1 1;
#X msg 1438 805 0 600;
#X obj 1417 721 bng 15 250 50 0 empty empty empty 17 7 0 10 -262144
-1 -1;
#X obj 1439 775 del 300;
#X obj 1417 683 sel 1;
#X obj 1416 660 change;
#X obj 1514 963 *~ 0.9;
#X obj 1304 987 dac~;
#X obj 1412 611 r windowX10;
#X obj 354 942 delwrite~ lol6 400;
#X obj 540 832 vd~ lo6l;
#X obj 764 972 delwrite~ lol7 400;
#X obj 868 879 vd~ lol7;
#X obj 1190 902 vd~ lol8;
#X obj 1035 976 delwrite~ lol8 400;
#X obj 1355 1005 delwrite~ lol9 400;
#X obj 1510 931 vd~ lol9;
#X obj 1511 905 sig~ 10;
#X obj 1191 876 sig~ 222;
#X obj 869 853 sig~ 111;
#X obj 363 704 osc~ 12400;
#X obj 691 751 osc~ 13600;
#X obj 992 709 osc~ 16500;
#X obj 1312 738 osc~ 13700;
#X obj 227 421 *~;
#X obj 272 358 r volY;
#X obj 270 416 line~;
#X obj 271 388 pack 0 400;
#X obj 195 874 *~;
#X obj 240 811 r volY;
#X obj 238 869 line~;
#X obj 239 841 pack 0 400;
#X obj 637 446 *~;
#X obj 682 383 r volY;
#X obj 680 441 line~;
#X obj 681 413 pack 0 400;
#X obj 605 897 *~;
#X obj 650 834 r volY;
#X obj 648 892 line~;
#X obj 649 864 pack 0 400;
#X connect 0 0 13 0;
#X connect 2 0 3 0;
#X connect 2 0 150 0;
#X connect 3 0 1 0;
#X connect 3 0 9 0;
#X connect 4 0 3 1;
#X connect 5 0 4 0;
#X connect 6 0 4 0;
#X connect 7 0 8 0;
#X connect 7 0 5 0;
#X connect 8 0 6 0;
#X connect 10 0 7 0;
#X connect 11 0 10 0;
#X connect 12 0 0 0;
#X connect 13 0 1 0;
#X connect 13 0 9 1;
#X connect 13 0 150 0;
#X connect 14 0 22 0;
#X connect 14 0 88 0;
#X connect 15 0 14 1;
#X connect 16 0 15 0;
#X connect 17 0 15 0;
#X connect 18 0 19 0;
#X connect 18 0 16 0;
#X connect 19 0 17 0;
#X connect 20 0 40 0;
#X connect 21 0 22 0;
#X connect 21 0 88 1;
#X connect 21 0 158 0;
#X connect 23 0 21 0;
#X connect 24 0 14 0;
#X connect 24 0 158 0;
#X connect 25 0 23 0;
#X connect 26 0 34 0;
#X connect 26 0 89 0;
#X connect 27 0 26 1;
#X connect 28 0 27 0;
#X connect 29 0 27 0;
#X connect 30 0 31 0;
#X connect 30 0 28 0;
#X connect 31 0 29 0;
#X connect 32 0 30 0;
#X connect 33 0 32 0;
#X connect 35 0 36 0;
#X connect 36 0 37 0;
#X connect 37 0 34 0;
#X connect 37 0 89 1;
#X connect 38 0 26 0;
#X connect 39 0 11 0;
#X connect 40 0 18 0;
#X connect 41 0 20 0;
#X connect 42 0 33 0;
#X connect 43 0 53 0;
#X connect 43 0 55 0;
#X connect 44 0 43 1;
#X connect 45 0 44 0;
#X connect 46 0 44 0;
#X connect 47 0 48 0;
#X connect 47 0 45 0;
#X connect 48 0 46 0;
#X connect 49 0 47 0;
#X connect 50 0 49 0;
#X connect 51 0 53 0;
#X connect 51 0 55 1;
#X connect 52 0 50 0;
#X connect 54 0 51 0;
#X connect 56 0 43 0;
#X connect 57 0 54 0;
#X connect 58 0 67 0;
#X connect 58 0 82 0;
#X connect 59 0 58 1;
#X connect 60 0 59 0;
#X connect 61 0 59 0;
#X connect 62 0 63 0;
#X connect 62 0 60 0;
#X connect 63 0 61 0;
#X connect 64 0 62 0;
#X connect 65 0 64 0;
#X connect 66 0 67 1;
#X connect 66 0 82 0;
#X connect 68 0 83 0;
#X connect 69 0 78 0;
#X connect 69 0 84 0;
#X connect 70 0 69 1;
#X connect 71 0 70 0;
#X connect 72 0 70 0;
#X connect 73 0 74 0;
#X connect 73 0 71 0;
#X connect 74 0 72 0;
#X connect 75 0 73 0;
#X connect 76 0 75 0;
#X connect 77 0 78 1;
#X connect 77 0 84 0;
#X connect 79 0 85 0;
#X connect 80 0 65 0;
#X connect 81 0 76 0;
#X connect 83 0 66 0;
#X connect 85 0 77 0;
#X connect 86 0 58 0;
#X connect 87 0 69 0;
#X connect 90 0 135 0;
#X connect 90 0 96 0;
#X connect 91 0 90 1;
#X connect 92 0 91 0;
#X connect 93 0 91 0;
#X connect 94 0 95 0;
#X connect 94 0 92 0;
#X connect 95 0 93 0;
#X connect 97 0 94 0;
#X connect 98 0 97 0;
#X connect 99 0 136 0;
#X connect 100 0 135 0;
#X connect 100 0 96 1;
#X connect 100 0 96 0;
#X connect 100 0 154 0;
#X connect 101 0 137 0;
#X connect 101 0 119 0;
#X connect 102 0 101 1;
#X connect 103 0 102 0;
#X connect 104 0 102 0;
#X connect 105 0 106 0;
#X connect 105 0 103 0;
#X connect 106 0 104 0;
#X connect 107 0 118 0;
#X connect 108 0 137 0;
#X connect 108 0 119 1;
#X connect 108 0 162 0;
#X connect 109 0 140 0;
#X connect 109 0 120 0;
#X connect 110 0 109 1;
#X connect 111 0 110 0;
#X connect 112 0 110 0;
#X connect 113 0 114 0;
#X connect 113 0 111 0;
#X connect 114 0 112 0;
#X connect 115 0 113 0;
#X connect 116 0 115 0;
#X connect 117 0 140 0;
#X connect 117 0 120 1;
#X connect 118 0 105 0;
#X connect 121 0 98 0;
#X connect 122 0 107 0;
#X connect 123 0 116 0;
#X connect 124 0 141 0;
#X connect 124 0 133 0;
#X connect 125 0 124 1;
#X connect 126 0 125 0;
#X connect 127 0 125 0;
#X connect 128 0 129 0;
#X connect 128 0 126 0;
#X connect 129 0 127 0;
#X connect 130 0 128 0;
#X connect 131 0 130 0;
#X connect 132 0 141 0;
#X connect 132 0 133 1;
#X connect 134 0 131 0;
#X connect 136 0 100 0;
#X connect 138 0 108 0;
#X connect 139 0 117 0;
#X connect 142 0 132 0;
#X connect 143 0 142 0;
#X connect 144 0 139 0;
#X connect 145 0 138 0;
#X connect 146 0 90 0;
#X connect 146 0 154 0;
#X connect 147 0 101 0;
#X connect 147 0 162 0;
#X connect 148 0 109 0;
#X connect 149 0 124 0;
#X connect 150 0 9 0;
#X connect 151 0 153 0;
#X connect 152 0 150 1;
#X connect 153 0 152 0;
#X connect 154 0 96 1;
#X connect 155 0 157 0;
#X connect 156 0 154 1;
#X connect 157 0 156 0;
#X connect 158 0 88 1;
#X connect 159 0 161 0;
#X connect 160 0 158 1;
#X connect 161 0 160 0;
#X connect 162 0 119 0;
#X connect 163 0 165 0;
#X connect 164 0 162 1;
#X connect 165 0 164 0;
#X restore 83 72 pd windowX;
#X obj 824 348 r clear;
#X obj 608 425 osc~ 200;
#X obj 606 508 *~;
#X obj 824 404 sel 1;
#X obj 605 162 r telaY;
#X obj 611 327 sig~;
#X obj 608 390 +~;
#X obj 695 358 *~ 5000;
#X obj 698 305 vd~ feed;
#X msg 825 434 1 1;
#X obj 804 548 line~;
#X obj 824 369 change;
#X obj 516 786 dac~;
#X msg 920 361 1;
#X obj 429 542 delwrite~ feed 500;
#X obj 605 274 * 1;
#X obj 805 215 +~;
#X obj 892 183 *~ 5000;
#X obj 895 130 vd~ feed;
#X obj 896 97 sig~ 200;
#X msg 862 492 0 50;
#X obj 862 471 del 50;
#X obj 808 152 sig~ 200;
#X obj 931 160 * 1000;
#X obj 178 540 * 3;
#X obj 114 470 r telaY;
#X obj 176 515 r telaX;
#X obj 648 562 r telaDentroX;
#X obj 698 737 r telaDentroY;
#X obj 243 545 r telaY;
#X obj 751 602 delwrite~ feed1 400;
#X obj 498 426 vd~ feed;
#X obj 499 393 sig~ 200;
#X obj 791 301 * 100;
#X obj 699 477 vd~ feed1;
#X obj 700 444 sig~ 10;
#X obj 584 739 vcf~;
#X obj 636 651 sig~;
#X obj 644 602 pack 0 200;
#X obj 527 732 lop~ 600;
#X connect 1 0 12 0;
#X connect 2 0 3 0;
#X connect 2 0 15 0;
#X connect 3 0 31 0;
#X connect 3 0 37 0;
#X connect 3 0 40 0;
#X connect 4 0 10 0;
#X connect 4 0 22 0;
#X connect 5 0 16 0;
#X connect 5 0 24 0;
#X connect 5 0 34 0;
#X connect 6 0 7 0;
#X connect 7 0 2 0;
#X connect 8 0 7 1;
#X connect 9 0 8 0;
#X connect 10 0 11 0;
#X connect 11 0 3 1;
#X connect 12 0 4 0;
#X connect 14 0 4 0;
#X connect 16 0 6 0;
#X connect 17 0 9 0;
#X connect 18 0 17 1;
#X connect 19 0 18 0;
#X connect 20 0 19 0;
#X connect 21 0 11 0;
#X connect 22 0 21 0;
#X connect 23 0 17 0;
#X connect 24 0 18 1;
#X connect 27 0 25 0;
#X connect 28 0 39 0;
#X connect 29 0 37 2;
#X connect 32 0 3 0;
#X connect 33 0 32 0;
#X connect 34 0 8 1;
#X connect 36 0 35 0;
#X connect 37 0 13 0;
#X connect 37 0 13 1;
#X connect 38 0 37 1;
#X connect 39 0 38 0;
#X connect 40 0 13 0;
#X connect 40 0 13 1;
